<?xml version="1.0" standalone="no"?>
<!DOCTYPE svg PUBLIC "-//W3C//DTD SVG 20010904//EN"
 "http://www.w3.org/TR/2001/REC-SVG-20010904/DTD/svg10.dtd">
<svg version="1.0" xmlns="http://www.w3.org/2000/svg"
 width="512.000000pt" height="512.000000pt" viewBox="0 0 512.000000 512.000000"
 preserveAspectRatio="xMidYMid meet">
<metadata>
Created by potrace 1.14, written by Peter Selinger 2001-2017
</metadata>
<g transform="translate(0.000000,512.000000) scale(0.100000,-0.100000)"
fill="#000000" stroke="none">
<path d="M323 4317 c-7 -12 -14 -271 -28 -1077 -2 -96 -6 -300 -9 -452 l-6
-276 444 0 444 0 1 80 c1 99 13 145 47 182 71 76 187 73 247 -6 50 -65 52 -93
51 -784 0 -622 -1 -641 -20 -679 -32 -61 -65 -80 -139 -80 -49 0 -70 5 -92 21
-45 33 -71 90 -78 174 -4 41 -9 91 -11 110 -2 19 -4 151 -5 293 0 141 -4 257
-7 258 -9 1 -863 1 -881 0 -11 -1 -13 -43 -8 -253 3 -139 8 -264 11 -278 3
-14 7 -47 10 -75 2 -27 7 -57 10 -65 3 -8 7 -31 10 -50 36 -232 175 -432 379
-544 104 -57 287 -117 402 -131 28 -4 64 -9 80 -12 48 -7 324 -7 390 0 84 10
131 18 220 40 103 25 237 87 316 147 146 111 262 311 285 492 3 24 7 54 10 68
25 147 24 1138 -1 1310 -43 283 -126 442 -286 542 -97 61 -193 92 -334 107
-236 24 -424 -31 -578 -170 l-67 -61 0 301 0 300 543 0 c298 0 548 0 555 0 9
1 12 65 12 289 l0 287 -956 0 c-536 0 -958 -4 -961 -8z"/>
<path d="M2755 4320 c-2 -3 -4 -55 -5 -115 -1 -114 -5 -332 -14 -760 -19 -870
-20 -891 -17 -922 1 -9 103 -12 443 -10 l441 2 3 93 c4 99 18 141 61 179 62
55 164 54 219 -1 30 -30 44 -64 59 -141 7 -34 7 -1206 1 -1277 -5 -54 -26 -94
-64 -123 -36 -27 -145 -28 -184 -1 -35 23 -66 87 -73 151 -3 28 -8 68 -11 90
-3 22 -7 163 -9 314 -2 169 -7 276 -13 280 -8 4 -819 6 -878 2 -11 -1 -11
-245 0 -426 26 -413 113 -621 327 -781 139 -105 363 -182 579 -200 587 -49
979 112 1140 469 78 173 85 255 85 942 0 511 -3 600 -26 720 -16 89 -65 234
-96 287 -75 125 -198 215 -356 258 -187 51 -410 43 -552 -22 -69 -31 -152 -88
-202 -139 -24 -23 -44 -38 -44 -33 -3 25 -5 571 -1 580 2 9 142 12 520 13 284
0 533 0 552 1 l35 0 -1 283 c-1 155 -2 284 -3 287 -1 7 -1912 7 -1916 0z"/>
</g>
</svg>
